<svg xmlns="http://www.w3.org/2000/svg" version="1.1" xmlns:xlink="http://www.w3.org/1999/xlink" xmlns:svgjs="http://svgjs.dev/svgjs" width="1000" height="1000" viewBox="0 0 1000 1000"><rect width="1000" height="1000" fill="#000000"></rect><g transform="matrix(0.7,0,0,0.7,150.61875409836063,146.08680161943317)"><svg viewBox="0 0 244 247" data-background-color="#ffffff" preserveAspectRatio="xMidYMid meet" height="1012" width="1000" xmlns="http://www.w3.org/2000/svg" xmlns:xlink="http://www.w3.org/1999/xlink"><g id="tight-bounds" transform="matrix(1,0,0,1,-0.21567999999999188,-0.09999999999999432)"><svg viewBox="0 0 244.43135999999998 247.2" height="247.2" width="244.43135999999998"><g><svg></svg></g><g><svg viewBox="0 0 244.43135999999998 247.2" height="247.2" width="244.43135999999998"><g transform="matrix(1,0,0,1,0,64.49434442036687)"><svg viewBox="0 0 244.43135999999998 118.21131115926624" height="118.21131115926624" width="244.43135999999998"><g><svg viewBox="0 0 244.43135999999998 118.21131115926624" height="118.21131115926624" width="244.43135999999998"><g><svg viewBox="0 0 244.43135999999998 118.21131115926624" height="118.21131115926624" width="244.43135999999998"><g><svg viewBox="0 0 244.43135999999998 118.21131115926624" height="118.21131115926624" width="244.43135999999998"><g id="textblocktransform"><svg viewBox="0 0 244.43135999999998 118.21131115926624" height="118.21131115926624" width="244.43135999999998" id="textblock"><g><svg viewBox="0 0 244.43135999999998 80.40401947960167" height="80.40401947960167" width="244.43135999999998"><g transform="matrix(1,0,0,1,0,0)"><svg width="244.43135999999998" viewBox="2.5 -38 155.64 51.2" height="80.40401947960167" data-palette-color="#766ea0"><path d="M19.25 1Q14.6 1 10.78-1.68 6.95-4.35 4.73-8.83 2.5-13.3 2.5-18.5L2.5-18.5Q2.5-23.75 4.58-28.23 6.65-32.7 10.38-35.35 14.1-38 18.8-38L18.8-38Q22.15-38 25.28-36.2 28.4-34.4 30-32.25L30-32.25 30.75-37.15 31.6-37.15 31.6-26 30-26Q30-28.75 28.7-31.28 27.4-33.8 24.78-35.4 22.15-37 18.3-37L18.3-37Q14.85-37 12.2-34.45 9.55-31.9 8.15-27.7 6.75-23.5 6.75-18.7L6.75-18.7Q6.75-13.65 8.05-9.43 9.35-5.2 12.23-2.6 15.1 0 19.5 0L19.5 0Q22.7 0 25-1.75 27.3-3.5 28.48-6.18 29.65-8.85 29.65-11.6L29.65-11.6Q29.65-13.85 29.33-15.05 29-16.25 28.1-16.25L28.1-16.25 24.45-16.3Q21.4-16.3 20.85-16 20.3-15.7 20.33-14.8 20.35-13.9 20.35-13.55L20.35-13.55Q20.35-12.45 20.55-11.88 20.75-11.3 21.45-11.25L21.45-11.25 21.45-10.6 19.5-10.6 19.5-17.25 32.95-17.25 32.95-4.9Q32.05-4.9 30.75-4.2L30.75-4.2Q29.9-3.7 28.95-3.05L28.95-3.05Q26.3-1.25 24-0.13 21.7 1 19.25 1L19.25 1ZM44.05 0.5Q41.25 0.5 39.35-1.23 37.45-2.95 37.45-6.15L37.45-6.15Q37.45-8.45 39-10.08 40.55-11.7 42.4-12.3L42.4-12.3Q43.35-12.6 44.62-12.88 45.9-13.15 46.35-13.25L46.35-13.25Q48.85-13.75 50.1-14.18 51.35-14.6 51.6-15.35L51.6-15.35Q51.6-18.95 50.22-21.35 48.85-23.75 45.65-23.75L45.65-23.75Q43.65-23.75 42.67-22.33 41.7-20.9 41.7-18.5L41.7-18.5Q41.7-17.85 41.95-17.57 42.2-17.3 43.1-17.3L43.1-17.3Q43.65-17.3 44.05-17.55 44.45-17.8 44.45-18.15L44.45-18.15 44.9-18.15 44.9-16.8 38.35-16.8Q38.35-18.6 39.4-20.38 40.45-22.15 42.3-23.28 44.15-24.4 46.4-24.4L46.4-24.4Q49.4-24.4 51.22-23.03 53.05-21.65 53.82-19.73 54.6-17.8 54.6-15.9L54.6-15.9 54.6-5.05Q54.6-1.3 56.2-1.3L56.2-1.3Q56.7-1.3 57.12-1.98 57.55-2.65 57.55-3.35L57.55-3.35 58.05-3.35Q58.05-1.5 56.92-0.5 55.8 0.5 54.35 0.5L54.35 0.5Q52.65 0.5 52.12-1 51.6-2.5 51.6-5.2L51.6-5.2 51.6-7.5Q51.6-6.8 50.92-4.85 50.25-2.9 48.55-1.2 46.85 0.5 44.05 0.5L44.05 0.5ZM45.2-0.9Q46.9-0.9 48.35-2.25 49.8-3.6 50.65-5.45 51.5-7.3 51.5-8.55L51.5-8.55 51.5-14.25Q51.5-14.1 51-13.95 50.5-13.8 49.75-13.65L49.75-13.65Q46.5-12.8 45-12.25L45-12.25Q42.65-11.4 41.55-9.88 40.45-8.35 40.45-6.45L40.45-6.45Q40.45-4.25 41.67-2.58 42.9-0.9 45.2-0.9L45.2-0.9ZM94.85-3.05Q94.85-1.8 95.1-1.18 95.35-0.55 96.25-0.55L96.25-0.55Q96.65-0.55 97.5-0.8L97.5-0.8 97.5-0.05 89-0.05 89-0.8Q89.85-0.55 90.25-0.55L90.25-0.55Q91.05-0.55 91.27-1.15 91.5-1.75 91.5-3.05L91.5-3.05 91.5-17.05Q91.5-20.45 90-22.13 88.5-23.8 86.15-23.8L86.15-23.8Q84.6-23.8 83.32-22.7 82.05-21.6 81.32-20 80.6-18.4 80.6-17.05L80.6-17.05 80.65-3Q80.65-1.75 80.9-1.13 81.15-0.5 82.05-0.5L82.05-0.5Q82.45-0.5 83.3-0.75L83.3-0.75 83.3 0 75.1 0 75.1-0.75Q75.95-0.5 76.35-0.5L76.35-0.5Q77.15-0.5 77.37-1.1 77.6-1.7 77.6-3L77.6-3 77.6-17Q77.6-20.4 76.2-22.08 74.8-23.75 72.45-23.75L72.45-23.75Q70.15-23.75 68.82-22 67.5-20.25 66.95-17.55L66.95-17.55 66.95-3Q66.95-1.7 67.17-1.1 67.4-0.5 68.2-0.5L68.2-0.5Q68.6-0.5 69.45-0.75L69.45-0.75 69.45 0 60.95 0 60.95-0.75Q61.8-0.5 62.2-0.5L62.2-0.5Q63.05-0.5 63.32-1.15 63.6-1.8 63.6-3.05L63.6-3.05 63.6-20.95Q62.65-20.55 61.55-20.55L61.55-20.55Q61.25-20.55 60.55-20.65L60.55-20.65 60.55-22 61-22Q61-21.65 61.37-21.4 61.75-21.15 62.25-21.15L62.25-21.15Q62.95-21.15 63.5-21.7 64.05-22.25 64.85-23.4L64.85-23.4 65.75-23.4 65.75-19.3 66.6-19.3Q68.6-24.4 72.9-24.4L72.9-24.4Q74.9-24.4 76.7-23.38 78.5-22.35 79.45-20.5L79.45-20.5Q79.8-19.8 79.8-19.3L79.8-19.3 80.3-19.3Q80.6-20.35 81.47-21.55 82.35-22.75 83.67-23.6 85-24.45 86.6-24.45L86.6-24.45Q88.5-24.45 90.42-23.48 92.35-22.5 93.6-20.68 94.85-18.85 94.85-16.45L94.85-16.45 94.85-3.05ZM104.89-26.6Q103.99-26.6 103.39-27.15 102.79-27.7 102.79-28.55L102.79-28.55Q102.79-29.4 103.39-29.95 103.99-30.5 104.89-30.5L104.89-30.5Q105.79-30.5 106.42-29.93 107.04-29.35 107.04-28.55L107.04-28.55Q107.04-27.7 106.44-27.15 105.84-26.6 104.89-26.6L104.89-26.6ZM100.49-0.75Q101.34-0.5 101.74-0.5L101.74-0.5Q102.64-0.5 102.89-1.13 103.14-1.75 103.14-3L103.14-3 103.14-20.8Q102.39-20.55 101.54-20.55L101.54-20.55Q101.19-20.55 100.49-20.65L100.49-20.65 100.49-22 100.94-22Q100.94-21.65 101.32-21.4 101.69-21.15 102.19-21.15L102.19-21.15Q102.89-21.15 103.44-21.7 103.99-22.25 104.79-23.4L104.79-23.4 106.24-23.4 106.24-3Q106.24-1.7 106.47-1.1 106.69-0.5 107.49-0.5L107.49-0.5Q107.89-0.5 108.74-0.75L108.74-0.75 108.74 0 100.49 0 100.49-0.75ZM132.14-3Q132.14-1.75 132.39-1.13 132.64-0.5 133.54-0.5L133.54-0.5Q133.94-0.5 134.79-0.75L134.79-0.75 134.79 0 126.29 0 126.29-0.75Q127.14-0.5 127.54-0.5L127.54-0.5Q128.34-0.5 128.56-1.1 128.79-1.7 128.79-3L128.79-3 128.79-16.4Q128.79-19.85 127.37-21.8 125.94-23.75 123.64-23.75L123.64-23.75Q121.44-23.75 120.12-22.03 118.79-20.3 118.27-17.95 117.74-15.6 117.74-13.45L117.74-13.45 117.74-3Q117.74-1.7 117.97-1.1 118.19-0.5 118.99-0.5L118.99-0.5Q119.39-0.5 120.24-0.75L120.24-0.75 120.24 0 111.74 0 111.74-0.75Q112.59-0.5 112.99-0.5L112.99-0.5Q113.89-0.5 114.14-1.13 114.39-1.75 114.39-3L114.39-3 114.39-20.75Q113.64-20.5 112.79-20.5L112.79-20.5Q112.44-20.5 111.74-20.6L111.74-20.6 111.74-21.95 112.19-21.95Q112.19-21.6 112.57-21.35 112.94-21.1 113.44-21.1L113.44-21.1Q114.14-21.1 114.69-21.65 115.24-22.2 116.04-23.35L116.04-23.35 116.94-23.35 116.99-19.3 117.69-19.3Q118.59-21.55 120.17-22.98 121.74-24.4 124.09-24.4L124.09-24.4Q125.99-24.4 127.87-23.43 129.74-22.45 130.94-20.63 132.14-18.8 132.14-16.4L132.14-16.4 132.14-3ZM154.44-23.4Q153.69-23.6 152.64-22.45L152.64-22.45Q153.94-21.3 154.59-19.6 155.24-17.9 155.24-16L155.24-16Q155.24-12.3 153.21-10 151.19-7.7 146.94-7.7L146.94-7.7Q143.54-7.7 141.44-9.4L141.44-9.4Q140.34-9.1 139.89-8.22 139.44-7.35 139.44-6.5L139.44-6.5Q139.44-4.1 143.79-4.1L143.79-4.1 149.19-4Q153.44-3.95 155.56-1.68 157.69 0.6 157.69 3.7L157.69 3.7Q157.69 6.15 156.34 8.33 154.99 10.5 152.54 11.85 150.09 13.2 146.94 13.2L146.94 13.2Q144.29 13.2 142.06 12.2 139.84 11.2 138.56 9.53 137.29 7.85 137.29 5.85L137.29 5.85Q137.29 4.45 138.04 3.13 138.79 1.8 140.41 0.9 142.04 0 144.54 0L144.54 0 144.54 0.4Q142.04 0.4 141.19 1.85 140.34 3.3 140.34 5.85L140.34 5.85Q140.34 8.55 141.99 10.43 143.64 12.3 146.94 12.3L146.94 12.3Q150.49 12.3 152.46 10.13 154.44 7.95 154.44 4.05L154.44 4.05Q154.44-1.75 144.44-1.75L144.44-1.75Q137.94-1.75 137.94-5.3L137.94-5.3Q137.94-6.6 138.71-7.95 139.49-9.3 141.04-9.8L141.04-9.8Q138.89-12 138.89-16L138.89-16Q138.89-19.5 140.89-21.93 142.89-24.35 146.94-24.35L146.94-24.35Q150.09-24.35 152.19-22.8L152.19-22.8Q152.84-23.45 153.76-23.88 154.69-24.3 155.54-24.3L155.54-24.3Q156.09-24.3 156.34-24.2L156.34-24.2Q157.09-23.95 157.61-23.38 158.14-22.8 158.14-22.15L158.14-22.15Q158.14-21.65 157.74-21.1L157.74-21.1Q157.24-20.45 156.84-20.45L156.84-20.45Q156.49-20.45 156.24-20.8 155.99-21.15 155.64-21.85L155.64-21.85Q155.29-22.6 155.04-22.98 154.79-23.35 154.44-23.4L154.44-23.4ZM146.94-8.3Q149.59-8.3 150.66-10.35 151.74-12.4 151.74-16L151.74-16Q151.74-19.4 150.64-21.58 149.54-23.75 146.94-23.75L146.94-23.75Q144.39-23.75 143.34-21.58 142.29-19.4 142.29-16L142.29-16Q142.29-12.4 143.31-10.35 144.34-8.3 146.94-8.3L146.94-8.3Z" opacity="1" transform="matrix(1,0,0,1,0,0)" fill="#ffffff" class="wordmark-text-0" data-fill-palette-color="primary" id="text-0"></path></svg></g></svg></g><g transform="matrix(1,0,0,1,0,99.38547878226811)"><svg viewBox="0 0 244.43135999999998 18.82583237699813" height="18.82583237699813" width="244.43135999999998"><g transform="matrix(1,0,0,1,0,0)"><svg width="244.43135999999998" viewBox="3.5 -36.5 481.66 37.1" height="18.82583237699813" data-palette-color="#050505"><path d="M16.85 0.6L16.85 0.6Q12.95 0.6 9.93-1.03 6.9-2.65 5.2-5.68 3.5-8.7 3.5-12.85L3.5-12.85 3.5-35 8.3-35 8.3-12.55Q8.3-10.1 9.33-8.08 10.35-6.05 12.28-4.83 14.2-3.6 16.85-3.6L16.85-3.6Q19.45-3.6 21.38-4.83 23.3-6.05 24.35-8.08 25.4-10.1 25.4-12.55L25.4-12.55 25.4-35 30.2-35 30.2-12.55Q30.2-10.1 31.23-8.08 32.25-6.05 34.18-4.83 36.1-3.6 38.75-3.6L38.75-3.6Q41.35-3.6 43.28-4.83 45.2-6.05 46.23-8.08 47.25-10.1 47.25-12.55L47.25-12.55 47.25-35 52.05-35 52.05-12.85Q52.05-8.7 50.35-5.68 48.65-2.65 45.65-1.03 42.65 0.6 38.75 0.6L38.75 0.6Q36.4 0.6 34.27-0.08 32.15-0.75 30.5-2.18 28.85-3.6 27.8-5.7L27.8-5.7Q26.8-3.6 25.1-2.2 23.4-0.8 21.28-0.1 19.15 0.6 16.85 0.6ZM78.7 0L72.15 0Q67.95 0 64.7-1.58 61.45-3.15 59.62-6.03 57.8-8.9 57.8-12.75L57.8-12.75Q57.8-16.55 59.35-19.58 60.9-22.6 63.65-24.35 66.4-26.1 70.05-26.1L70.05-26.1Q74-26.1 76.62-24.4 79.25-22.7 80.55-19.83 81.85-16.95 81.85-13.4L81.85-13.4Q81.85-12.85 81.82-12.25 81.8-11.65 81.7-11.2L81.7-11.2 62.7-11.2Q62.95-8.85 64.25-7.23 65.55-5.6 67.57-4.78 69.6-3.95 72.05-3.95L72.05-3.95 78.7-3.95 78.7 0ZM62.65-14.45L62.65-14.45 77.2-14.45Q77.2-15.4 77-16.48 76.8-17.55 76.3-18.57 75.8-19.6 74.97-20.43 74.15-21.25 72.92-21.75 71.7-22.25 70.05-22.25L70.05-22.25Q68.3-22.25 66.97-21.58 65.65-20.9 64.7-19.78 63.75-18.65 63.25-17.25 62.75-15.85 62.65-14.45ZM105.89 0L101.09 0 101.09-35 105.89-35 105.89-19.95 124.34-19.95 124.34-35 129.14-35 129.14 0 124.34 0 124.34-15.7 105.89-15.7 105.89 0ZM147.19 0.6L147.19 0.6Q143.49 0.6 140.79-1.18 138.09-2.95 136.64-6 135.19-9.05 135.19-12.75L135.19-12.75Q135.19-16.5 136.79-19.53 138.39-22.55 141.39-24.33 144.39-26.1 148.59-26.1L148.59-26.1Q152.64-26.1 155.54-24.35 158.44-22.6 160.02-19.6 161.59-16.6 161.59-12.9L161.59-12.9 161.59 0 156.94 0 156.94-5.2 156.84-5.2Q156.09-3.75 154.82-2.43 153.54-1.1 151.64-0.25 149.74 0.6 147.19 0.6ZM148.39-3.35L148.39-3.35Q150.89-3.35 152.82-4.58 154.74-5.8 155.82-7.98 156.89-10.15 156.89-12.85L156.89-12.85Q156.89-15.5 155.87-17.6 154.84-19.7 152.94-20.93 151.04-22.15 148.49-22.15L148.49-22.15Q145.79-22.15 143.87-20.9 141.94-19.65 140.92-17.53 139.89-15.4 139.89-12.7L139.89-12.7Q139.89-10.1 140.89-7.98 141.89-5.85 143.79-4.6 145.69-3.35 148.39-3.35ZM177.64 0.6L177.64 0.6Q175.94 0.6 174.56-0.38 173.19-1.35 172.54-3.15L172.54-3.15 164.24-25.5 169.29-25.5 176.69-4.85Q176.89-4.35 177.14-4.15 177.39-3.95 177.69-3.95L177.69-3.95Q178.04-3.95 178.26-4.15 178.49-4.35 178.69-4.85L178.69-4.85 186.14-25.5 191.09-25.5 182.79-3.15Q182.09-1.35 180.74-0.38 179.39 0.6 177.64 0.6ZM214.24 0L207.69 0Q203.49 0 200.24-1.58 196.99-3.15 195.16-6.03 193.34-8.9 193.34-12.75L193.34-12.75Q193.34-16.55 194.89-19.58 196.44-22.6 199.19-24.35 201.94-26.1 205.59-26.1L205.59-26.1Q209.54-26.1 212.16-24.4 214.79-22.7 216.09-19.83 217.39-16.95 217.39-13.4L217.39-13.4Q217.39-12.85 217.36-12.25 217.34-11.65 217.24-11.2L217.24-11.2 198.24-11.2Q198.49-8.85 199.79-7.23 201.09-5.6 203.11-4.78 205.14-3.95 207.59-3.95L207.59-3.95 214.24-3.95 214.24 0ZM198.19-14.45L198.19-14.45 212.74-14.45Q212.74-15.4 212.54-16.48 212.34-17.55 211.84-18.57 211.34-19.6 210.51-20.43 209.69-21.25 208.46-21.75 207.24-22.25 205.59-22.25L205.59-22.25Q203.84-22.25 202.51-21.58 201.19-20.9 200.24-19.78 199.29-18.65 198.79-17.25 198.29-15.85 198.19-14.45ZM253.23 0L250.88 0Q248.03 0 245.96-1.23 243.88-2.45 242.76-4.58 241.63-6.7 241.63-9.35L241.63-9.35 241.63-30.75 230.98-30.75 230.98-35 257.08-35 257.08-30.75 246.43-30.75 246.43-8.75Q246.43-6.8 247.66-5.53 248.88-4.25 250.93-4.25L250.93-4.25 253.23-4.25 253.23 0ZM263.98 0L259.38 0 259.38-36.5 263.98-36.5 263.98-22.2Q265.53-24.2 267.75-25.15 269.98-26.1 272.38-26.1L272.38-26.1Q275.78-26.1 278.28-24.68 280.78-23.25 282.18-20.7 283.58-18.15 283.58-14.75L283.58-14.75 283.58 0 278.98 0 278.98-14.7Q278.98-17 277.93-18.68 276.88-20.35 275.15-21.25 273.43-22.15 271.48-22.15L271.48-22.15Q269.53-22.15 267.83-21.28 266.13-20.4 265.05-18.75 263.98-17.1 263.98-14.8L263.98-14.8 263.98 0ZM310.38 0L303.83 0Q299.63 0 296.38-1.58 293.13-3.15 291.3-6.03 289.48-8.9 289.48-12.75L289.48-12.75Q289.48-16.55 291.03-19.58 292.58-22.6 295.33-24.35 298.08-26.1 301.73-26.1L301.73-26.1Q305.68-26.1 308.3-24.4 310.93-22.7 312.23-19.83 313.53-16.95 313.53-13.4L313.53-13.4Q313.53-12.85 313.5-12.25 313.48-11.65 313.38-11.2L313.38-11.2 294.38-11.2Q294.63-8.85 295.93-7.23 297.23-5.6 299.25-4.78 301.28-3.95 303.73-3.95L303.73-3.95 310.38-3.95 310.38 0ZM294.33-14.45L294.33-14.45 308.88-14.45Q308.88-15.4 308.68-16.48 308.48-17.55 307.98-18.57 307.48-19.6 306.65-20.43 305.83-21.25 304.6-21.75 303.38-22.25 301.73-22.25L301.73-22.25Q299.98-22.25 298.65-21.58 297.33-20.9 296.38-19.78 295.43-18.65 294.93-17.25 294.43-15.85 294.33-14.45ZM337.57 0L332.77 0 332.77-35 347.52-35Q350.82-35 353.52-33.52 356.22-32.05 357.82-29.4 359.42-26.75 359.42-23.2L359.42-23.2Q359.42-19.75 357.85-17.1 356.27-14.45 353.57-12.95 350.87-11.45 347.42-11.45L347.42-11.45 337.57-11.45 337.57 0ZM337.57-30.75L337.57-15.7 346.87-15.7Q349.02-15.7 350.8-16.57 352.57-17.45 353.6-19.15 354.62-20.85 354.62-23.2L354.62-23.2Q354.62-25.6 353.6-27.28 352.57-28.95 350.8-29.85 349.02-30.75 346.92-30.75L346.92-30.75 337.57-30.75ZM376.02 0.6L376.02 0.6Q372.12 0.6 369.12-1.18 366.12-2.95 364.37-5.98 362.62-9 362.62-12.75L362.62-12.75Q362.62-16.5 364.37-19.53 366.12-22.55 369.12-24.33 372.12-26.1 376.02-26.1L376.02-26.1Q379.92-26.1 382.94-24.33 385.97-22.55 387.69-19.53 389.42-16.5 389.42-12.75L389.42-12.75Q389.42-9 387.69-5.98 385.97-2.95 382.94-1.18 379.92 0.6 376.02 0.6ZM376.02-3.35L376.02-3.35Q378.67-3.35 380.62-4.6 382.57-5.85 383.67-7.98 384.77-10.1 384.77-12.75L384.77-12.75Q384.77-15.4 383.67-17.53 382.57-19.65 380.62-20.9 378.67-22.15 376.02-22.15L376.02-22.15Q373.42-22.15 371.44-20.9 369.47-19.65 368.37-17.53 367.27-15.4 367.27-12.75L367.27-12.75Q367.27-10.1 368.37-7.98 369.47-5.85 371.44-4.6 373.42-3.35 376.02-3.35ZM403.87 0.6L403.87 0.6Q401.47 0.6 399.54-0.33 397.62-1.25 396.47-3.23 395.31-5.2 395.31-8.3L395.31-8.3 395.31-25.5 399.92-25.5 399.92-7.5Q399.92-6.15 400.47-5.2 401.02-4.25 401.92-3.8 402.81-3.35 403.81-3.35L403.81-3.35Q404.81-3.35 405.72-3.83 406.62-4.3 407.19-5.23 407.77-6.15 407.77-7.5L407.77-7.5 407.77-17.4Q407.77-20.35 408.87-22.28 409.97-24.2 411.87-25.15 413.77-26.1 416.17-26.1L416.17-26.1Q418.56-26.1 420.47-25.15 422.37-24.2 423.47-22.28 424.56-20.35 424.56-17.4L424.56-17.4 424.56-7.5Q424.56-6.15 425.12-5.23 425.67-4.3 426.56-3.83 427.47-3.35 428.52-3.35L428.52-3.35Q429.56-3.35 430.42-3.83 431.27-4.3 431.82-5.23 432.37-6.15 432.37-7.5L432.37-7.5 432.37-25.5 437.02-25.5 437.02-8.3Q437.02-5.2 435.87-3.23 434.72-1.25 432.79-0.33 430.87 0.6 428.52 0.6L428.52 0.6Q426.22 0.6 424.27-0.33 422.31-1.25 421.14-3.23 419.97-5.2 419.97-8.3L419.97-8.3 419.97-18.1Q419.97-19.5 419.42-20.4 418.87-21.3 418.02-21.73 417.17-22.15 416.17-22.15L416.17-22.15Q415.17-22.15 414.29-21.73 413.42-21.3 412.89-20.4 412.37-19.5 412.37-18.1L412.37-18.1 412.37-8.3Q412.37-5.2 411.19-3.23 410.02-1.25 408.09-0.33 406.17 0.6 403.87 0.6ZM463.81 0L457.26 0Q453.06 0 449.81-1.58 446.56-3.15 444.74-6.03 442.91-8.9 442.91-12.75L442.91-12.75Q442.91-16.55 444.46-19.58 446.01-22.6 448.76-24.35 451.51-26.1 455.16-26.1L455.16-26.1Q459.11-26.1 461.74-24.4 464.36-22.7 465.66-19.83 466.96-16.95 466.96-13.4L466.96-13.4Q466.96-12.85 466.94-12.25 466.91-11.65 466.81-11.2L466.81-11.2 447.81-11.2Q448.06-8.85 449.36-7.23 450.66-5.6 452.69-4.78 454.71-3.95 457.16-3.95L457.16-3.95 463.81-3.95 463.81 0ZM447.76-14.45L447.76-14.45 462.31-14.45Q462.31-15.4 462.11-16.48 461.91-17.55 461.41-18.57 460.91-19.6 460.09-20.43 459.26-21.25 458.04-21.75 456.81-22.25 455.16-22.25L455.16-22.25Q453.41-22.25 452.09-21.58 450.76-20.9 449.81-19.78 448.86-18.65 448.36-17.25 447.86-15.85 447.76-14.45ZM477.26 0L472.66 0 472.66-18.25Q472.66-21.65 474.59-23.58 476.51-25.5 479.91-25.5L479.91-25.5 485.16-25.5 485.16-21.55 480.76-21.55Q479.11-21.55 478.19-20.6 477.26-19.65 477.26-17.95L477.26-17.95 477.26 0Z" opacity="1" transform="matrix(1,0,0,1,0,0)" fill="#ffffff" class="slogan-text-1" data-fill-palette-color="secondary" id="text-1"></path></svg></g></svg></g></svg></g></svg></g><g></g></svg></g></svg></g></svg></g><path d="M0 58.494L0 1 244.431 1 244.431 58.494 237.18 58.494 237.18 8.251 7.251 8.251 7.251 58.494 0 58.494M0 188.706L0 246.2 244.431 246.2 244.431 188.706 237.18 188.706 237.18 238.949 7.251 238.949 7.251 188.706 0 188.706" fill="#ffffff" stroke="transparent" data-fill-palette-color="primary"></path></svg></g><defs></defs></svg><rect width="244.43135999999998" height="247.2" fill="none" stroke="none" visibility="hidden"></rect></g></svg></g></svg>